<svg xmlns="http://www.w3.org/2000/svg" version="1.1" xmlns:xlink="http://www.w3.org/1999/xlink" xmlns:svgjs="http://svgjs.dev/svgjs" viewBox="0 0 1422 800"><defs><linearGradient x1="50%" y1="0%" x2="50%" y2="100%" id="ccchaos-grad"><stop stop-color="hsl(167, 72%, 60%)" stop-opacity="1" offset="0%"></stop><stop stop-color="hsl(167, 76%, 16%)" stop-opacity="1" offset="100%"></stop></linearGradient></defs><g stroke-width="2" stroke="url(#ccchaos-grad)" fill="none" stroke-linecap="round"><path d="M661.34 83.24C670.44 86.7 679.52 91.83 688.57 98.17 697.65 104.86 706.76 111.84 715.9 118.66 725.14 124.53 734.49 129.6 744.02 133.68 753.73 136.24 763.73 137.8 774.05 138.52 784.7 138.07 795.8 137.31 807.4 136.54 819.43 135.54 832.06 135.2 845.29 135.79 858.98 137.06 873.29 139.68 888.15 143.73 903.37 148.91 919.01 155.58 934.91 163.6 950.85 172.68 966.76 182.9 982.36 194 997.46 205.79 1011.81 218.14 1025.07 230.83 1037.16 243.79 1047.65 256.81 1056.21 269.77 1063 282.68 1067.45 295.39 1069.36 307.86 1069.2 320.14 1066.41 332.18 1060.99 343.98 1053.77 355.6 1044.26 367.06 1032.76 378.4 1020.36 389.63 1006.75 400.83 992.41 412.03 978.56 423.2 965.01 434.43 952.29 445.71 941.5 456.99 932.62 468.05 925.88 478.83 921.76 489.56 919.9 499.91 920.2 509.75 922.96 519.4 927.47 528.35 933.37 536.44 940.93 544.11 949.18 550.69 957.68 556 966.78 560.69 975.41 563.95 983.2 565.69 1001.64 559.47 987.89 557.18 975.68 565.72 966.29 575.46 955.9 588.25 944.73 604.06 933.05 622.49 920.83 643.04 908.29 664.85 895.48 686.8 882.53 707.83 869.57 726.59 856.54 742.01 843.62 752.89 830.9 758.27 818.21 758.2 805.77 752.16 793.64 740.51 781.56 724.96 769.79 706.09 758.38 685.6 747 666.18 735.94 648.92 725.23 635.63 714.51 628.27 704.34 626.99 694.69 631.65 685 642.11 675.78 656.64 666.99 673.6 658.11 692.14 649.61 709.71 641.47 724.74 633.17 736.75 625.17 743.96 617.42 745.91 609.46 743.01 601.7 734.94 594.11 722.39 586.25 706.31 578.49 687.48 570.81 667.03 562.82 645.79 554.87 624.81 546.96 604.92 538.72 586.5 530.5 570.17 522.32 556.14 513.85 544.46 505.45 535.06 497.15 527.68 488.67 522.33 480.36 518.38 472.29 515.39 464.17 513.59 456.39 512.05 449.01 510.39 441.76 509.17 435.02 507.34 428.85 504.7 422.97 502.03 417.75 498.35 413.26 493.6 409.15 488.67 405.82 482.66 403.31 475.6 401.23 468.39 399.98 460.21 399.58 451.11 399.57 441.94 400.39 431.94 402.03 421.16 403.97 410.38 406.62 399.11 409.9 387.45 413.3 375.82 417.24 363.8 421.62 351.48 425.95 339.2 430.63 326.64 435.59 313.87 440.33 301.22 445.26 288.44 450.33 275.64 455.04 263.11 459.84 250.72 464.69 238.65 469.11 227.09 473.58 216.07 478.07 205.79 482.15 196.29 486.29 187.75 490.51 180.36 496.39 171.28 508.63 160.55 515.21 158.49 521.9 157.6 537.04 156.64 545.59 154.91 551.44 152.3 557.73 148.78 564.41 144.28 571.14 138.37 578.27 131.62 585.76 124.25 593.29 116.18 601.16 108.15 609.32 100.61 617.51 93.62 625.96 87.95 634.65 84 643.34 81.6 652.25 81.33 661.34 83.24" stroke-dasharray="9 8" transform="rotate(0, 711, 400)" opacity="0.90"></path><path d="M664.37 94.29C673.17 97.77 682.05 102.88 691.01 109.2 699.99 115.91 709.09 122.97 718.32 129.94 727.65 136.08 737.18 141.5 746.95 146 756.9 149.05 767.19 151.1 777.84 152.27 788.77 152.21 800.16 151.69 812.02 150.98 824.24 149.85 837 149.14 850.27 149.11 863.89 149.51 877.99 151.05 892.5 153.85 907.21 157.6 922.18 162.74 937.23 169.21 952.17 176.71 966.9 185.4 981.17 195.09 994.84 205.57 1007.64 216.78 1019.28 228.5 1029.75 240.66 1038.63 253.08 1045.64 265.59 1050.99 278.24 1054.16 290.83 1054.98 303.26 1053.96 315.66 1050.55 327.85 1044.79 339.8 1037.48 351.68 1028.16 363.34 1017.08 374.78 1005.28 386.17 992.43 397.39 978.95 408.45 965.97 419.49 953.25 430.4 941.28 441.15 931.06 451.89 922.54 462.18 915.92 471.97 911.66 481.7 909.42 490.84 909.13 499.27 911.1 507.52 914.67 514.91 919.57 521.33 926.06 527.41 933.26 532.36 940.81 536.1 949.05 539.41 956.99 541.45 964.32 542.26 984.73 539.26 977 548.68 967.13 561.53 959.34 573.68 950.53 588.42 940.87 605.57 930.68 624.58 919.86 644.93 908.6 665.79 897.04 686.1 885.21 704.94 873.25 721.13 861.17 733.85 849.08 742.11 837.08 745.19 825.06 743.35 813.19 736.16 801.55 724.07 789.93 708.73 778.55 690.64 767.45 671.31 756.38 653.15 745.56 637.06 735.04 624.59 724.51 617.49 714.48 615.91 704.92 619.7 695.32 628.86 686.15 641.85 677.37 657.32 668.5 674.58 659.97 691.36 651.76 706.25 643.41 718.83 635.3 727.38 627.43 731.34 619.35 731.04 611.44 725.92 603.67 716.47 595.65 703.47 587.72 687.4 579.86 669.24 571.72 649.72 563.61 629.75 555.54 610.13 547.19 591.26 538.87 573.81 530.6 558.13 522.09 544.28 513.67 532.43 505.36 522.46 496.93 514.36 488.68 507.78 480.68 502.39 472.68 498.31 465.02 494.85 457.78 491.66 450.69 489.13 444.1 486.4 438.1 483.23 432.38 480.26 427.33 476.57 423 472.05 419.06 467.5 415.88 462.04 413.52 455.63 411.58 449.14 410.47 441.72 410.2 433.4 410.33 425.02 411.27 415.79 413.04 405.74 415.1 395.69 417.86 385.1 421.23 374.08 424.74 363.1 428.76 351.72 433.21 340.04 437.62 328.46 442.37 316.63 447.38 304.67 452.19 292.9 457.17 281.1 462.29 269.41 467.07 258.08 471.92 247.03 476.81 236.42 481.3 226.38 485.82 217 490.36 208.44 494.49 200.64 498.66 193.82 502.9 188.12 508.77 181.33 520.8 174.06 527.16 172.99 533.53 172.44 547.75 170.71 555.72 168.09 561.13 164.82 566.94 160.64 573.14 155.51 579.35 149.1 585.94 141.95 592.91 134.31 599.88 126.13 607.21 118.12 614.87 110.68 622.53 103.88 630.51 98.42 638.77 94.67 647.02 92.45 655.56 92.31 664.37 94.29" stroke-dasharray="5 7" transform="rotate(0.75, 711, 400)" opacity="0.43"></path><path d="M669.45 105.34C678 108.83 686.72 113.9 695.57 120.16 704.47 126.86 713.55 133.96 722.84 141.04 732.22 147.41 741.86 153.15 751.79 158.06 761.88 161.6 772.33 164.18 783.16 165.85 794.22 166.27 805.73 166.11 817.67 165.62 829.88 164.53 842.55 163.63 855.64 163.19 868.96 162.94 882.65 163.6 896.59 165.3 910.6 167.76 924.72 171.48 938.76 176.43 952.56 182.32 966.01 189.4 978.88 197.53 991.08 206.48 1002.33 216.28 1012.39 226.72 1021.3 237.72 1028.66 249.15 1034.22 260.82 1038.26 272.78 1040.28 284.81 1040.14 296.8 1038.39 308.89 1034.49 320.85 1028.5 332.6 1021.18 344.36 1012.1 355.9 1001.48 367.17 990.29 378.45 978.19 389.47 965.56 400.2 953.42 410.94 941.52 421.4 930.28 431.51 920.61 441.63 912.45 451.12 905.97 459.96 901.61 468.74 899.05 476.77 898.24 484 899.48 491.06 902.19 497.21 906.14 502.37 911.61 507.28 917.8 511.14 924.39 513.93 931.74 516.49 938.94 518.04 945.7 518.66 962.14 519.35 972.19 524.66 969.63 531.68 966.61 539.04 962.25 548.51 956.68 560.24 950.39 574.21 943.07 590.25 934.86 608.06 926.13 627.01 916.7 646.62 906.74 666.05 896.46 684.42 885.8 700.88 874.91 714.44 863.86 724.55 852.68 730.37 841.49 731.37 830.25 727.99 819.06 719.89 807.99 707.55 796.92 692.55 786.01 675.29 775.29 657.12 764.59 640.19 754.08 625.22 743.79 613.54 733.49 606.73 723.63 604.87 714.18 607.87 704.7 615.8 695.58 627.33 686.81 641.31 677.96 657.24 669.41 673.1 661.12 687.61 652.71 700.48 644.51 710.01 636.5 715.63 628.31 717.58 620.26 715.15 612.32 708.64 604.17 698.69 596.08 685.53 588.06 669.95 579.79 652.62 571.56 634.24 563.37 615.58 554.94 597.02 546.56 579.25 538.24 562.67 529.73 547.37 521.33 533.68 513.06 521.64 504.71 511.16 496.57 502.18 488.68 494.48 480.84 488.05 473.35 482.49 466.28 477.49 459.39 473.27 453 469.2 447.19 465.03 441.68 461.21 436.83 457 432.68 452.25 428.93 447.58 425.93 442.22 423.73 436.1 421.96 429.96 420.99 423.03 420.85 415.28 421.11 407.51 422.18 398.94 424.04 389.61 426.21 380.28 429.06 370.44 432.5 360.2 436.09 350.01 440.17 339.47 444.68 328.68 449.15 318.02 453.95 307.21 459 296.35 463.86 285.73 468.9 275.19 474.06 264.89 478.9 254.98 483.82 245.47 488.77 236.5 493.34 228.1 497.93 220.42 502.54 213.6 508.86 204.85 521.2 193.24 527.34 190.3 533.19 188.62 545.6 187.49 552.32 186.8 556.77 185.42 561.56 183.47 566.68 180.79 571.75 176.83 577.19 171.98 582.99 166.26 588.77 159.39 594.93 151.92 601.46 144.08 607.98 135.86 614.86 127.92 622.09 120.65 629.31 114.07 636.88 108.86 644.78 105.34 652.67 103.32 660.89 103.31 669.45 105.34" stroke-dasharray="9 5" transform="rotate(1.5, 711, 400)" opacity="0.77"></path><path d="M676.36 116.39C684.7 119.87 693.26 124.88 702.01 131.06 710.8 137.71 719.84 144.8 729.13 151.96 738.5 158.51 748.17 164.54 758.16 169.82 768.28 173.86 778.77 176.97 789.62 179.19 800.66 180.16 812.1 180.47 823.92 180.33 835.93 179.44 848.32 178.56 861.02 177.92 873.85 177.24 886.92 177.24 900.11 178.07 913.27 179.43 926.38 181.88 939.28 185.43 951.85 189.78 963.96 195.27 975.39 201.79 986.11 209.1 995.85 217.32 1004.38 226.28 1011.81 235.85 1017.75 245.97 1021.98 256.47 1024.85 267.36 1025.85 278.46 1024.9 289.63 1022.54 301.02 1018.26 312.35 1012.12 323.54 1004.88 334.84 996.09 345.93 985.96 356.75 975.4 367.62 964.05 378.2 952.24 388.43 940.92 398.68 929.81 408.55 919.27 417.99 910.15 427.42 902.35 436.15 896.04 444.13 891.62 452.06 888.79 459.19 887.51 465.48 889.05 474.3 900.17 487.21 908.44 491.34 914.88 493.77 921.29 495.48 927.42 496.6 936.48 498.57 949.93 503.48 953.56 508.02 954.94 512.79 955.02 518.92 953.82 526.7 951.9 536.37 948.76 547.93 944.46 561.38 939.52 576.53 933.57 593.21 926.72 611.02 919.37 629.35 911.29 647.72 902.61 665.36 893.6 681.54 884.14 695.53 874.34 706.49 864.36 714.11 854.16 717.69 843.84 716.86 833.45 712.18 823 703.39 812.58 690.96 802.15 676.4 791.77 660.03 781.5 643.02 771.24 627.3 761.1 613.4 751.09 602.49 741.08 595.97 731.43 593.87 722.12 596.16 712.78 602.93 703.75 613.06 695.01 625.58 686.2 640.14 677.63 654.95 669.29 668.91 660.84 681.77 652.56 691.96 644.44 698.88 636.16 702.72 628 702.68 619.93 698.87 611.66 691.85 603.46 681.63 595.32 668.8 586.97 653.97 578.66 637.66 570.39 620.54 561.94 602.98 553.54 585.62 545.22 568.91 536.77 552.92 528.43 538.11 520.26 524.6 512.04 512.31 504.04 501.35 496.32 491.63 488.68 483.05 481.4 475.44 474.54 468.59 467.88 462.54 461.73 456.9 456.15 451.45 450.88 446.44 446.25 441.33 442.32 435.97 438.78 430.78 435.98 425.16 433.95 419.01 432.35 412.9 431.54 406.18 431.53 398.82 431.92 391.44 433.09 383.42 435.05 374.76 437.31 366.1 440.22 357.03 443.72 347.66 447.36 338.33 451.48 328.76 456.02 319.05 460.53 309.47 465.36 299.84 470.43 290.28 475.34 280.97 480.42 271.87 485.62 263.1 490.53 254.72 495.51 246.81 500.53 239.53 505.18 232.75 509.86 226.7 514.55 221.5 521.02 214.95 533.59 206.86 539.81 205.06 545.69 203.94 557.97 202.5 564.53 201.05 568.82 199.02 573.42 196.34 578.33 192.91 583.14 188.25 588.3 182.76 593.81 176.49 599.26 169.24 605.08 161.51 611.26 153.56 617.41 145.38 623.92 137.58 630.81 130.52 637.67 124.22 644.9 119.29 652.49 116.01 660.07 114.19 668.03 114.31 676.36 116.39" stroke-dasharray="8 5" transform="rotate(2.25, 711, 400)" opacity="0.59"></path><path d="M684.81 127.43C692.95 130.89 701.34 135.81 709.98 141.89 718.64 148.45 727.59 155.5 736.81 162.68 746.1 169.38 755.71 175.65 765.64 181.28 775.67 185.77 786.06 189.42 796.78 192.21 807.63 193.77 818.84 194.63 830.35 194.95 841.99 194.43 853.91 193.75 866.04 193.12 878.21 192.25 890.5 191.83 902.79 192.03 914.95 192.54 926.94 193.93 938.62 196.27 949.9 199.23 960.64 203.23 970.63 208.2 979.91 213.88 988.18 220.47 995.25 227.84 1001.31 235.82 1005.94 244.44 1008.98 253.54 1010.81 263.08 1010.93 272.95 1009.29 283 1006.43 293.33 1001.88 303.72 995.69 314.05 988.59 324.54 980.14 334.89 970.53 345.01 960.6 355.21 949.99 365.13 938.99 374.7 928.47 384.3 918.12 393.51 908.27 402.25 899.69 410.98 892.26 419 886.12 426.28 880.15 436.75 877.54 453.68 880.38 460.14 886.09 465.84 901.31 474.25 909.55 477.6 917.82 481.53 930.83 492.06 934.82 500.02 936.67 507.04 937.38 515.42 936.96 525.32 935.96 536.8 933.83 549.84 930.63 564.37 926.88 580.04 922.15 596.71 916.54 613.94 910.48 631.14 903.67 647.88 896.21 663.46 888.43 677.31 880.14 688.79 871.43 697.25 862.54 702.56 853.35 704.11 843.93 701.7 834.43 695.97 824.78 686.69 815.06 674.34 805.31 660.33 795.54 644.88 785.78 629.02 776.02 614.47 766.29 601.61 756.62 591.44 746.95 585.21 737.55 582.92 728.42 584.55 719.28 590.25 710.37 599.05 701.69 610.15 692.96 623.32 684.42 637 676.06 650.23 667.6 662.85 659.28 673.38 651.09 681.23 642.77 686.6 634.53 688.59 626.36 687.19 618.05 682.9 609.78 675.51 601.56 665.48 593.19 653.34 584.85 639.41 576.57 624.29 568.15 608.31 559.8 592.02 551.54 575.88 543.2 559.97 534.99 544.77 526.95 530.5 518.92 517.05 511.13 504.69 503.62 493.42 496.23 483.09 489.19 473.72 482.59 465.17 476.21 457.38 470.32 450.16 465 443.34 460 436.99 455.63 430.8 451.93 424.6 448.62 418.64 446.03 412.5 444.2 406.08 442.77 399.73 442.12 393 442.24 385.85 442.75 378.7 444.02 371.09 446.05 363.02 448.38 354.95 451.34 346.64 454.87 338.15 458.55 329.71 462.69 321.15 467.23 312.59 471.76 304.14 476.6 295.78 481.68 287.6 486.62 279.65 491.73 272.01 496.95 264.79 501.92 257.9 506.96 251.55 512.04 245.84 516.79 240.54 521.55 235.96 526.33 232.15 532.97 227.39 545.85 221.86 552.19 220.69 558.18 219.67 570.5 217.19 576.99 214.75 581.21 211.98 585.7 208.54 590.46 204.34 595.11 199.01 600.08 192.94 605.37 186.2 610.58 178.65 616.14 170.75 622.06 162.77 627.93 154.7 634.16 147.1 640.76 140.31 647.33 134.33 654.29 129.7 661.63 126.69 668.95 125.08 676.67 125.32 684.81 127.43" stroke-dasharray="3 4" transform="rotate(3, 711, 400)" opacity="0.17"></path><path d="M694.41 138.48C702.36 141.89 710.58 146.72 719.05 152.65 727.56 159.1 736.36 166.06 745.44 173.22 754.58 180.01 764.03 186.47 773.77 192.39 783.6 197.32 793.75 201.47 804.18 204.82 814.7 207.01 825.51 208.49 836.55 209.36 847.65 209.34 858.95 209.02 870.34 208.59 881.71 207.76 893.09 207.17 904.36 207 915.43 206.91 926.24 207.52 936.64 208.89 946.61 210.69 955.97 213.39 964.55 216.97 972.43 221.12 979.32 226.14 985.04 231.94 989.83 238.3 993.28 245.33 995.26 252.92 996.18 260.94 995.55 269.39 993.35 278.12 990.13 287.15 985.4 296.35 979.24 305.59 972.34 315.01 964.27 324.39 955.2 333.61 945.91 342.93 936.03 352.04 925.82 360.84 916.06 369.68 906.45 378.17 897.26 386.23 889.21 394.29 882.15 401.7 876.22 408.44 870.16 418.18 866.28 434.32 868.05 440.85 872.46 446.96 885.06 457.62 892.17 462.87 897.21 466.93 901.88 471.31 906.01 476.21 910.08 482.03 913.38 488.71 915.84 496.43 917.96 505.36 919.12 515.54 919.28 527.03 918.99 539.71 917.68 553.61 915.41 568.53 912.66 584.11 909 600.19 904.49 616.32 899.59 631.99 893.93 646.79 887.6 660.13 880.99 671.59 873.81 680.63 866.17 686.72 858.34 689.92 850.14 689.7 841.64 685.97 833.04 679.42 824.22 669.85 815.24 657.72 806.22 644.33 797.09 629.84 787.88 615.13 778.68 601.71 769.42 589.85 760.14 580.39 750.85 574.46 741.76 572.01 732.87 573.05 723.96 577.76 715.22 585.3 706.66 595.03 698.05 606.82 689.59 619.3 681.25 631.66 672.85 643.81 664.54 654.39 656.33 662.85 648.01 669.37 639.76 673.01 631.57 673.69 623.26 671.84 614.99 667.11 606.77 659.8 598.43 650.39 590.14 639.04 581.91 626.21 573.58 612.26 565.34 597.58 557.21 582.62 549.04 567.47 541.01 552.61 533.18 538.27 525.39 524.38 517.85 511.28 510.61 499.05 503.5 487.5 496.77 476.81 490.46 466.93 484.39 457.67 478.81 449.06 473.78 440.98 469.07 433.35 464.97 426.05 461.53 418.97 458.47 412.13 456.11 405.34 454.47 398.51 453.23 391.77 452.73 384.88 452.98 377.8 453.61 370.73 454.97 363.41 457.06 355.84 459.44 348.27 462.43 340.64 465.96 333 469.65 325.4 473.79 317.83 478.31 310.39 482.84 303.05 487.67 295.91 492.74 289.07 497.69 282.41 502.8 276.14 508.04 270.35 513.05 264.82 518.14 259.84 523.27 255.49 530.53 249.72 544.64 241.83 551.48 239.57 557.88 237.81 570.51 235.42 576.87 234 583.02 231.3 595.96 222.04 602.87 215 607.43 209.07 612.28 202.49 617.43 195.37 622.49 187.61 627.87 179.65 633.59 171.72 639.25 163.84 645.27 156.51 651.65 150.05 658 144.41 664.72 140.11 671.85 137.37 678.95 135.98 686.46 136.34 694.41 138.48" stroke-dasharray="1 3" transform="rotate(3.75, 711, 400)" opacity="0.89"></path><path d="M704.75 149.53C712.5 152.89 720.52 157.58 728.79 163.35 737.1 169.65 745.69 176.49 754.54 183.58 763.44 190.4 772.63 197 782.07 203.16 791.58 208.46 801.36 213.08 811.37 216.98 821.42 219.79 831.7 221.9 842.12 223.39 852.55 223.97 863.08 224.15 873.62 224.1 884.07 223.51 894.44 223 904.61 222.71 914.54 222.32 924.12 222.42 933.23 223.1 941.9 224.02 949.92 225.68 957.14 228.09 963.71 230.92 969.3 234.54 973.78 238.9 977.42 243.72 979.82 249.21 980.89 255.29 981.03 261.76 979.79 268.72 977.15 276.04 973.66 283.65 968.85 291.53 962.8 299.54 956.15 307.75 948.5 316 939.98 324.21 931.32 332.52 922.16 340.7 912.71 348.68 903.7 356.7 894.8 364.47 886.26 371.9 878.72 379.34 872.03 386.25 866.32 392.63 860.24 401.93 855.26 418.09 856.07 425.16 859.29 432.13 869.36 445.82 875.33 453.19 879.69 458.77 883.79 464.83 887.49 471.53 891.23 479.07 894.37 487.48 896.81 496.86 899.04 507.23 900.45 518.65 901.02 531.11 901.24 544.37 900.57 558.47 899.03 573.17 897.11 588.09 894.35 603.07 890.78 617.69 886.88 631.51 882.25 644.19 876.95 655.2 871.39 664.31 865.26 671.01 858.62 674.93 851.8 676.25 844.55 674.52 836.95 669.72 829.25 662.59 821.26 652.91 813.03 641.13 804.76 628.44 796.3 614.93 787.69 601.34 779.07 589.01 770.33 578.11 761.48 569.35 752.64 563.71 743.91 561.14 735.3 561.65 726.68 565.45 718.17 571.82 709.78 580.24 701.35 590.66 693.02 601.91 684.78 613.29 676.48 624.78 668.25 635.16 660.08 643.9 651.84 651.2 643.65 656.12 635.5 658.52 627.27 658.77 619.07 656.42 610.92 651.64 602.7 644.9 594.52 636.16 586.41 625.8 578.26 614.15 570.2 601.48 562.26 588.18 554.33 574.39 546.55 560.48 538.98 546.74 531.49 533.11 524.25 519.95 517.32 507.39 510.56 495.25 504.16 483.8 498.18 473.05 492.45 462.77 487.21 453.12 482.5 444.05 478.11 435.36 474.31 427.11 471.14 419.22 468.35 411.57 466.21 404.14 464.78 396.86 463.73 389.69 463.38 382.57 463.76 375.47 464.49 368.39 465.93 361.27 468.06 354.1 470.48 346.94 473.48 339.9 477 333.01 480.68 326.15 484.79 319.48 489.27 313.05 493.77 306.7 498.57 300.66 503.6 295 508.53 289.46 513.64 284.37 518.87 279.78 523.9 275.36 529.02 271.48 534.19 268.18 541.56 263.75 555.95 257.75 562.97 255.92 569.56 254.18 582.56 250.76 589.07 248.38 593.21 245.97 597.49 243.12 601.93 239.72 606.19 235.39 610.64 230.44 615.32 224.85 619.86 218.39 624.65 211.41 629.72 204.03 634.68 196.17 639.95 188.23 645.54 180.45 651.05 172.83 656.91 165.84 663.13 159.73 669.29 154.47 675.83 150.52 682.77 148.07 689.68 146.89 697 147.37 704.75 149.53" stroke-dasharray="5 2" transform="rotate(4.5, 711, 400)" opacity="0.78"></path><path d="M715.36 160.58C722.89 163.86 730.68 168.42 738.71 174 746.76 180.11 755.07 186.79 763.62 193.76 772.2 200.56 781.03 207.22 790.07 213.57 799.15 219.18 808.44 224.22 817.9 228.61 827.37 232.03 836.98 234.78 846.67 236.92 856.32 238.16 865.98 238.95 875.58 239.41 885.04 239.25 894.34 239.02 903.36 238.86 912.12 238.44 920.48 238.32 928.32 238.61 939.09 239.42 955.94 244.44 961.51 248.8 964.88 254.32 964.55 268.84 960.72 277.55 957.06 283.75 952.26 290.28 946.38 297.05 940.03 303.99 932.82 311.08 924.87 318.24 916.84 325.49 908.39 332.73 899.68 339.89 891.38 347.09 883.17 354.15 875.25 361.04 868.22 367.93 861.91 374.46 856.43 380.63 852.09 386.8 848.66 392.65 846.12 398.19 844.49 406.48 846.56 422.47 849.69 430.6 852.66 436.39 855.83 442.43 859.08 448.85 862.73 455.8 866.22 463.32 869.43 471.52 872.75 480.41 875.6 490.1 877.9 500.63 880.09 511.88 881.6 523.93 882.39 536.72 882.95 549.96 882.73 563.67 881.75 577.59 880.47 591.36 878.43 604.84 875.65 617.63 872.59 629.42 868.84 639.87 864.45 648.56 857.23 657.68 839.86 660.14 829.95 653.04 823.11 645.53 815.93 635.91 808.45 624.59 800.93 612.66 793.15 600.13 785.16 587.65 777.16 576.38 768.96 566.4 760.6 558.3 752.24 552.96 743.91 550.31 735.65 550.36 727.38 553.33 719.15 558.61 710.99 565.78 702.82 574.86 694.68 584.86 686.6 595.17 678.49 605.85 670.4 615.8 662.36 624.54 654.27 632.28 646.21 638.1 638.19 641.83 630.11 643.81 622.06 643.51 614.07 641.02 606.03 636.75 598.05 630.54 590.15 622.66 582.24 613.45 574.43 603.04 566.76 591.74 559.12 579.74 551.66 567.31 544.41 554.72 537.27 541.96 530.39 529.37 523.82 517.11 517.43 505.02 511.4 493.4 505.8 482.33 500.44 471.55 495.56 461.33 491.2 451.66 487.15 442.26 483.66 433.35 480.78 424.86 478.25 416.58 476.36 408.64 475.13 400.99 474.27 393.44 474.08 386.11 474.57 378.96 475.4 371.85 476.9 364.87 479.07 358.02 481.5 351.18 484.5 344.62 487.98 338.36 491.62 332.11 495.68 326.18 500.1 320.6 504.55 315.06 509.29 309.91 514.26 305.19 519.15 300.54 524.22 296.35 529.43 292.66 537.02 287.49 552.22 279.7 559.73 276.97 566.86 274.49 580.81 270.42 587.67 268.32 594.2 265.31 607.33 256.72 614.03 250.66 618.36 245.61 622.87 240 627.57 233.84 632.13 226.98 636.91 219.72 641.95 212.18 646.87 204.33 652.07 196.53 657.57 188.98 662.99 181.7 668.73 175.09 674.8 169.39 680.83 164.54 687.21 160.95 693.96 158.78 700.7 157.82 707.82 158.41 715.36 160.58" stroke-dasharray="2 9" transform="rotate(5.25, 711, 400)" opacity="0.56"></path><path d="M725.77 171.63C733.07 174.83 740.59 179.22 748.32 184.59 756.07 190.48 764.03 196.95 772.19 203.76 780.37 210.48 788.75 217.15 797.3 223.6 805.85 229.45 814.56 234.84 823.37 239.67 832.16 243.65 841.02 247.02 849.88 249.81 858.67 251.74 867.4 253.2 875.99 254.28 884.42 254.69 892.62 254.93 900.49 255.1 908.09 254.89 915.25 254.84 921.86 255.03 937.54 256.91 950.41 265.34 950.41 270.35 949.39 274.1 947.29 278.36 944.12 283.07 940.38 287.97 935.65 293.26 930 298.86 924 304.6 917.25 310.58 909.88 316.73 902.48 322.96 894.71 329.3 886.72 335.7 879.11 342.12 871.56 348.56 864.25 354.98 857.7 361.4 851.78 367.65 846.55 373.72 842.31 379.8 838.83 385.75 836.12 391.59 834.43 397.5 833.45 403.38 833.14 409.29 833.72 415.38 834.82 421.62 836.33 428.08 838.53 434.86 840.94 442.01 843.46 449.6 846.4 457.65 849.26 466.28 851.92 475.52 854.76 485.29 857.24 495.73 859.28 506.82 861.31 518.36 862.78 530.45 863.66 542.97 864.38 555.62 864.45 568.41 863.85 581.09 863.04 593.35 861.55 605.03 859.4 615.81 857.02 625.46 854.01 633.69 850.38 640.15 844.38 646.19 829.5 644.15 820.8 635.98 814.78 628.3 808.37 618.89 801.62 608.13 794.83 597.01 787.73 585.48 780.37 574.07 772.99 563.81 765.37 554.71 757.53 547.25 749.68 542.22 741.81 539.51 733.94 539.15 726.07 541.38 718.19 545.65 710.33 551.65 702.47 559.45 694.6 568.19 686.76 577.39 678.9 587.14 671.04 596.46 663.2 604.95 655.35 612.8 647.5 619.18 639.68 623.86 631.85 627.18 624.04 628.57 616.28 628.02 608.51 625.95 600.8 622.07 593.18 616.57 585.59 609.78 578.1 601.71 570.76 592.6 563.49 582.66 556.4 572.07 549.53 561.07 542.79 549.69 536.31 538.21 530.15 526.79 524.17 515.34 518.56 504.13 513.35 493.29 508.4 482.57 503.9 472.28 499.9 462.44 496.2 452.79 493.04 443.57 490.46 434.8 488.21 426.17 486.56 417.94 485.54 410.08 484.86 402.3 484.82 394.84 485.42 387.69 486.34 380.57 487.89 373.71 490.07 367.12 492.51 360.53 495.47 354.35 498.91 348.57 502.49 342.79 506.47 337.42 510.8 332.47 515.18 327.53 519.83 323.02 524.72 318.96 529.55 314.91 534.55 311.32 539.7 308.19 547.26 303.7 562.48 296.72 570.04 294.03 577.29 291.29 591.54 285.92 598.57 282.81 603.03 280.14 607.55 277.19 612.14 273.87 616.53 269.86 621.02 265.39 625.62 260.43 630.05 254.74 634.63 248.58 639.38 241.99 643.99 234.85 648.79 227.43 653.82 219.88 658.74 212.15 663.91 204.58 669.34 197.36 674.69 190.47 680.34 184.3 686.29 179.04 692.2 174.61 698.43 171.39 705 169.52 711.56 168.77 718.48 169.46 725.77 171.63" stroke-dasharray="10 10" transform="rotate(6, 711, 400)" opacity="0.73"></path><path d="M735.54 182.67C742.56 185.78 749.77 189.99 757.15 195.12 764.54 200.77 772.09 207 779.8 213.6 787.51 220.18 795.37 226.79 803.33 233.27 811.29 239.28 819.33 244.93 827.41 250.13 835.46 254.6 843.5 258.53 851.47 261.94 859.36 264.56 867.12 266.71 874.68 268.47 882.06 269.55 889.17 270.38 895.92 271.05 905.39 271.39 921.15 272.18 927.08 273.1 932.62 282.01 921.36 298.52 913.7 305.24 908.07 309.92 901.81 314.93 895.01 320.2 888.23 325.52 881.13 331.06 873.83 336.79 866.88 342.53 859.97 348.43 853.24 354.47 847.18 360.5 841.63 366.54 836.67 372.57 832.55 378.62 829.06 384.71 826.23 390.85 824.28 397.08 822.94 403.43 822.17 409.95 822.19 416.64 822.66 423.6 823.51 430.87 824.99 438.4 826.69 446.35 828.52 454.76 830.77 463.5 832.98 472.76 835.08 482.55 837.38 492.67 839.43 503.3 841.14 514.37 842.9 525.63 844.21 537.2 845.04 548.91 845.8 560.51 846 571.97 845.64 583.06 845.13 593.55 844.04 603.27 842.35 611.94 834.68 627.89 817.37 627.52 809.77 618.64 804.48 610.96 798.8 601.89 792.75 591.78 786.65 581.5 780.22 570.96 773.49 560.59 766.73 551.31 759.7 543.04 752.4 536.2 745.1 531.48 737.72 528.75 730.29 528.05 722.87 529.6 715.4 532.96 707.9 537.87 700.41 544.45 692.88 551.96 685.35 560.01 677.82 568.74 670.27 577.28 662.72 585.29 655.18 592.99 647.63 599.58 640.11 604.85 632.59 609.13 625.09 611.8 617.65 612.83 610.23 612.62 602.87 610.78 595.62 607.43 588.4 602.93 581.31 597.13 574.37 590.24 567.52 582.5 560.86 573.94 554.42 564.8 548.13 555.15 542.09 545.18 536.38 535.05 530.85 524.73 525.67 514.44 520.89 504.31 516.36 494.17 512.26 484.3 508.64 474.75 505.3 465.28 502.48 456.17 500.2 447.46 498.23 438.83 496.83 430.58 496.01 422.72 495.51 414.92 495.61 407.48 496.31 400.4 497.31 393.36 498.89 386.64 501.08 380.27 503.5 373.89 506.42 368 509.77 362.57 513.28 357.12 517.17 352.13 521.39 347.58 525.66 343.02 530.2 338.89 534.97 335.21 542.17 329.83 557.16 320.99 564.82 317.39 572.31 313.85 587.2 307.36 594.58 304.08 601.67 300.12 615.73 290.49 622.73 284.48 627.24 279.71 631.83 274.54 636.52 268.94 641.05 262.75 645.71 256.19 650.5 249.31 655.17 242.03 660.02 234.6 665.04 227.16 669.97 219.67 675.12 212.43 680.49 205.61 685.8 199.18 691.37 193.49 697.2 188.69 702.99 184.71 709.07 181.86 715.45 180.28 721.82 179.74 728.51 180.53 735.54 182.67" stroke-dasharray="5 4" transform="rotate(6.75, 711, 400)" opacity="0.74"></path><path d="M744.22 193.72C750.94 196.71 757.79 200.73 764.76 205.61 771.74 210.99 778.84 216.94 786.03 223.27 793.22 229.66 800.49 236.15 807.81 242.58 815.11 248.67 822.44 254.49 829.74 259.96 844.19 269.01 858.28 276.23 871.52 281.74 884.07 284.72 895.21 286.78 904.35 288.58 916.5 293.79 904.74 310.4 897.5 315.93 892.27 319.79 886.5 324.01 880.28 328.57 874.1 333.14 867.64 338.03 861.02 343.21 854.7 348.39 848.4 353.84 842.24 359.57 836.65 365.29 831.48 371.15 826.78 377.15 822.81 383.18 819.37 389.37 816.46 395.75 814.31 402.2 812.67 408.89 811.51 415.84 811.04 422.93 810.97 430.34 811.23 438.11 813.42 454.21 816.2 472 818.97 491.37 822.69 511.4 825.44 532.5 826.78 553.68 828.08 573.65 827.47 591.64 824.84 605.86 819.21 617.64 803.81 610.36 797.18 601.1 792.56 593.58 787.53 584.97 782.12 575.57 776.68 566.15 770.89 556.58 764.77 547.23 758.63 538.87 752.18 531.4 745.44 525.16 738.7 520.73 731.85 518.02 724.9 517.03 717.97 517.99 710.95 520.53 703.88 524.44 696.82 529.86 689.7 536.18 682.55 543.09 675.42 550.74 668.25 558.4 661.07 565.76 646.77 580.06 632.45 590.41 618.33 595.73 604.38 597.19 590.73 593.12 577.69 584.38 565.05 572.41 553.23 557.39 542.56 540.65 532.65 522.7 524.18 504.46 517.45 486.79 514.48 477.93 511.99 469.32 510.01 461 508.32 452.71 507.16 444.74 506.55 437.12 506.22 429.53 506.45 422.29 507.24 415.4 508.3 408.53 509.91 402.01 512.08 395.85 514.47 389.68 517.32 384.01 520.59 378.8 524 373.57 527.77 368.8 531.85 364.45 535.99 360.07 540.4 356.1 545.03 352.52 549.64 348.88 554.44 345.59 559.38 342.63 568.99 336.34 579 331 589.21 326.2 598.79 320.21 608.53 313.99 618.37 307.05 627.52 298.1 636.9 287.85 646.54 276.2 655.64 262.75 665.21 248.46 675.34 234.1 680.28 226.95 685.4 220.13 690.72 213.78 695.97 207.87 701.44 202.68 707.15 198.38 712.81 194.84 718.73 192.37 724.9 191.08 731.06 190.73 737.5 191.6 744.22 193.72" stroke-dasharray="6 10" transform="rotate(7.5, 711, 400)" opacity="0.34"></path><path d="M751.43 204.77C764.18 211.21 777.27 220.95 790.53 232.8 803.77 245.04 817.07 257.46 830.11 269.15 842.92 278.92 855.18 287.19 866.45 293.93 877.06 298.36 886.2 301.77 893.4 304.66 901.23 307.09 901.67 314.71 893.75 321.52 886.5 326.55 876.99 333.11 865.68 341.18 854.63 349.25 842.91 358.74 831.23 369.65 821.52 380.56 813.28 392.48 806.79 405.35 802.84 418.46 800.49 432.84 799.47 448.48 800.45 464.59 802.01 482.09 803.66 500.64 806.29 519.26 808.23 538.21 809.08 556.47 810.06 573.08 809.49 587.22 807.21 597.47 804.66 603.75 800.31 604.64 794.18 599.58 787.77 590.48 779.71 576.64 770.12 559.5 760.39 542.77 749.3 526.86 736.96 514.11 724.63 507.56 711.74 506.82 698.53 511.34 685.39 521.27 671.96 533.66 658.48 546.5 645.09 559.84 631.69 570.38 618.49 577.04 605.51 580.89 592.87 580.03 580.83 574.93 569.23 566.99 558.45 555.86 548.79 542.61 539.86 527.96 532.28 512.41 526.35 496.82 521.41 480.93 518.28 465.59 517.16 451.27 517.09 436.99 519.04 423.81 523.09 411.94 527.95 400.07 534.43 389.94 542.19 381.39 550.21 372.65 559.17 365.24 568.77 358.9 578.16 352.01 587.97 345.72 598.02 339.63 607.56 332.37 617.29 324.66 627.13 316.17 636.4 305.97 645.87 294.65 655.56 282.26 664.79 268.6 674.41 254.51 684.48 240.76 694.26 227.61 704.69 216.37 715.81 208.11 726.82 202.7 738.69 201.46 751.43 204.77" stroke-dasharray="10 5" transform="rotate(8.25, 711, 400)" opacity="0.82"></path><path d="M756.86 215.82C768.84 221.91 780.95 231.04 793.02 242.19 805.05 253.89 816.93 266 828.37 277.71 839.57 287.97 850.06 297.06 859.47 304.86 868.27 310.66 875.62 315.44 881.11 319.57 886.79 323.64 884.81 332.51 876.93 339 870.14 343.53 861.44 349.46 851.22 356.86 841.31 364.2 830.79 373.05 820.23 383.47 811.33 393.89 803.57 405.51 797.21 418.21 792.99 431.07 790.05 445.18 788.23 460.37 788.14 475.75 788.6 492.12 789.21 508.99 790.78 525.49 791.86 541.7 792.13 556.64 792.29 574.95 785.63 589.23 778.34 581.99 772.77 572.51 765.68 559.29 757.15 543.62 748.51 528.65 738.54 514.52 727.34 503.06 716.14 496.87 704.33 495.5 692.17 498.59 680.07 506.44 667.67 516.66 655.18 527.66 642.83 539.69 630.46 549.85 618.32 557.15 606.42 562.58 594.87 564.16 583.93 562.06 573.44 557.63 563.74 550.11 555.12 540.27 547.18 529.04 540.53 516.47 535.39 503.34 531.15 489.75 528.58 476.21 527.85 463.22 528.06 450.19 530.11 437.88 534.09 426.56 538.81 415.23 545.02 405.31 552.42 396.65 560.1 387.81 568.67 379.96 577.88 372.85 586.96 365.17 596.49 357.79 606.28 350.36 615.69 341.88 625.31 332.85 635.04 323.07 644.33 311.95 653.81 299.94 663.45 287.2 672.72 273.7 682.32 260.14 692.25 247.24 701.95 235.19 712.16 225.12 722.91 217.9 733.56 213.32 744.88 212.52 756.86 215.82" stroke-dasharray="0 7" transform="rotate(9, 711, 400)" opacity="0.34"></path><path d="M760.26 226.86C771.4 232.59 782.48 241.07 793.33 251.46 804.13 262.5 814.59 274.14 824.46 285.66 834.11 296.15 842.93 305.81 850.63 314.44 857.81 321.42 863.57 327.48 867.62 332.84 871.51 338.77 867.81 349.95 860.18 356.76 853.91 361.31 846.05 367.03 836.9 374.08 828.09 381.02 818.72 389.4 809.22 399.33 801.12 409.25 793.88 420.36 787.72 432.49 783.33 444.7 779.95 457.97 777.48 472.02 776.49 486.05 775.98 500.62 775.65 515.17 776.22 529.08 776.46 542.22 776.1 553.74 775.57 566.92 769.03 572.91 762.48 563.9 757.55 554.41 751.27 542.06 743.68 527.92 736 514.68 727.08 502.24 716.99 492.01 706.91 486.2 696.21 484.34 685.15 486.18 674.16 492.13 662.86 500.27 651.48 509.39 640.26 519.84 629.03 529.18 618.02 536.48 607.29 542.73 596.91 545.96 587.12 546.12 577.78 544.52 569.2 540.1 561.63 533.36 554.69 525.37 548.94 515.79 544.6 505.24 541.04 494.17 539 482.71 538.63 471.29 539.09 459.79 541.22 448.58 545.1 437.9 549.64 427.22 555.54 417.52 562.54 408.71 569.82 399.72 577.95 391.36 586.71 383.42 595.41 374.98 604.56 366.57 614 357.95 623.16 348.47 632.56 338.44 642.08 327.76 651.27 316.13 660.63 303.85 670.13 291.2 679.33 278.21 688.79 265.47 698.5 253.62 708.02 242.8 717.92 233.95 728.21 227.78 738.42 224 749.12 223.61 760.26 226.86" stroke-dasharray="9 9" transform="rotate(9.75, 711, 400)" opacity="0.11"></path><path d="M761.49 237.91C771.73 243.25 781.73 251.05 791.35 260.62 800.92 270.91 810 281.92 818.4 293.04 826.58 303.49 833.89 313.43 840.07 322.61 845.81 330.5 850.22 337.62 853.06 344.08 855.54 351.87 850.73 365.88 843.53 373.44 837.85 378.34 830.83 384.16 822.74 391.06 814.97 397.85 806.69 405.88 798.22 415.27 790.89 424.65 784.19 435.03 778.31 446.21 773.85 457.42 770.18 469.37 767.21 481.75 765.49 493.96 764.16 506.26 763.01 518.14 762.68 529.25 762.13 539.26 761.15 547.49 759.84 556.07 753.05 555.47 747.02 545.45 742.57 536.31 736.94 525.01 730.17 512.45 723.34 500.88 715.39 490.02 706.38 480.96 697.37 475.55 687.8 473.32 677.87 474.1 668.02 478.37 657.89 484.57 647.69 491.81 637.64 500.53 627.62 508.69 617.83 515.5 608.31 521.88 599.14 526 590.55 527.67 582.37 528.14 574.91 526.15 568.4 522 562.45 516.84 557.58 510 553.99 501.92 551.09 493.35 549.55 484.01 549.51 474.29 550.18 464.45 552.36 454.48 556.1 444.57 560.43 434.66 565.99 425.27 572.55 416.36 579.39 407.33 587.03 398.56 595.26 389.92 603.5 380.9 612.19 371.71 621.18 362.23 629.99 352.12 639.05 341.5 648.24 330.39 657.19 318.69 666.31 306.62 675.53 294.45 684.54 282.3 693.74 270.63 703.11 260.02 712.34 250.51 721.84 242.9 731.57 237.76 741.25 234.74 751.25 234.72 761.49 237.91" stroke-dasharray="4 8" transform="rotate(10.5, 711, 400)" opacity="0.77"></path><path d="M760.49 248.96C769.78 253.88 778.69 260.98 787.1 269.69 795.47 279.13 803.24 289.36 810.27 299.88 817.11 310.05 823.06 319.96 827.93 329.36 832.44 337.84 835.72 345.73 837.62 353.04 839.04 359.42 838.99 365.46 837.41 371.34 835.39 376.56 831.9 381.96 827.03 387.73 821.97 393.16 815.8 399.23 808.72 406.1 801.95 412.85 794.7 420.56 787.21 429.32 780.65 438.08 774.51 447.53 768.96 457.47 764.55 467.4 760.7 477.7 757.39 488.08 755.1 498.19 753.11 508.03 751.29 517.15 747.42 535.79 738.03 537.11 732.34 526.8 728.23 518.28 723.15 508.17 717.1 497.2 711.01 487.23 703.96 477.86 695.98 469.92 688 464.93 679.52 462.43 670.75 462.34 662.05 465.13 653.11 469.58 644.13 475.02 635.3 481.96 626.51 488.7 617.98 494.63 609.68 500.58 601.74 504.91 594.35 507.38 584.15 508.99 568.5 501.49 563.61 493.31 561.32 486.99 560.24 479.67 560.49 471.62 561.34 463.45 563.53 454.77 567.11 445.75 571.19 436.72 576.38 427.78 582.46 418.96 588.81 410.06 595.9 401.11 603.56 392.08 611.25 382.79 619.4 373.2 627.85 363.3 636.2 353 644.8 342.29 653.53 331.26 662.11 319.95 670.85 308.5 679.66 297.2 688.34 286.17 697.15 275.78 706.05 266.52 714.87 258.38 723.84 252 732.92 247.87 741.98 245.56 751.2 245.87 760.49 248.96" stroke-dasharray="7 2" transform="rotate(11.25, 711, 400)" opacity="0.39"></path><path d="M757.3 260.01C765.6 264.5 773.43 270.87 780.68 278.68 787.89 287.19 794.45 296.53 800.24 306.27 805.89 315.89 810.66 325.48 814.42 334.78 817.92 343.47 820.3 351.77 821.48 359.6 822.32 366.74 821.91 373.57 820.21 380.17 818.23 386.24 815.04 392.33 810.71 398.57 806.3 404.51 800.96 410.84 794.85 417.66 789.03 424.38 782.75 431.73 776.2 439.77 770.38 447.81 764.83 456.17 759.67 464.7 755.39 473.17 751.5 481.67 748 489.92 745.3 497.89 742.83 505.3 740.49 511.8 734.94 523.27 724.27 518.1 718.82 508.1 714.96 500.42 710.33 491.6 704.91 482.19 699.47 473.74 693.23 465.76 686.23 458.87 679.23 454.33 671.83 451.68 664.2 450.89 656.62 452.43 648.88 455.32 641.13 459.11 633.51 464.29 625.97 469.51 618.68 474.29 611.61 479.39 604.88 483.39 598.67 486.03 590.13 488.71 577.3 485.47 573.48 479.91 571.75 475.45 571.09 469.87 571.58 463.35 572.57 456.73 574.73 449.34 578.11 441.28 581.92 433.23 586.7 424.91 592.28 416.42 598.09 407.9 604.59 399.1 611.6 390.08 618.69 380.9 626.22 371.38 634.03 361.56 641.8 351.56 649.83 341.24 657.99 330.78 666.06 320.3 674.28 309.84 682.56 299.73 690.75 290.03 699.04 281.07 707.35 273.25 715.62 266.48 723.96 261.31 732.3 258.11 740.63 256.46 749 257.05 757.3 260.01" stroke-dasharray="4 3" transform="rotate(12, 711, 400)" opacity="0.75"></path><path d="M752.07 271.06C759.36 275.09 766.12 280.73 772.28 287.61 778.4 295.14 783.86 303.48 788.57 312.28 793.16 321.13 796.94 330.11 799.8 338.98 802.47 347.51 804.17 355.81 804.84 363.78 805.28 371.29 804.68 378.54 803.02 385.54 801.19 392.16 798.36 398.7 794.61 405.21 790.85 411.51 786.32 417.96 781.14 424.61 776.21 431.19 770.85 438.09 765.19 445.31 760.11 452.52 755.14 459.71 750.43 466.76 746.38 473.74 742.57 480.45 739.01 486.66 725.61 504.96 712.01 498.71 706.75 489.5 703.1 482.82 698.86 475.33 694.01 467.44 689.15 460.4 683.67 453.73 677.58 447.82 671.5 443.74 665.13 441.05 658.6 439.74 652.12 440.26 645.54 441.83 639 444.15 632.56 447.68 626.23 451.38 620.16 454.88 611.49 460.49 596.67 467.29 590.97 467.67 586.48 466.44 582.25 457.54 582.79 450.24 583.87 444.96 585.97 438.77 589.12 431.73 592.62 424.69 596.96 417.17 601.99 409.29 607.24 401.41 613.1 393.12 619.43 384.53 625.84 375.88 632.66 366.89 639.76 357.66 646.86 348.41 654.2 338.95 661.67 329.49 669.11 320.18 676.68 311.03 684.29 302.33 691.86 294.13 699.48 286.68 707.09 280.31 714.68 274.87 722.27 270.85 729.79 268.52 737.31 267.46 744.77 268.27 752.07 271.06" stroke-dasharray="11 5" transform="rotate(12.75, 711, 400)" opacity="0.09"></path><path d="M745.02 282.1C757.59 290.12 767.9 302.82 775.54 318.01 782.85 333.82 787.09 350.16 787.91 365.76 788.19 380.35 785.07 394.26 778.78 407.38 772.61 419.95 764.17 432.63 754.19 445.26 745.9 457.88 737.79 469.2 730.38 478.25 722.08 488.85 706.27 485.89 696.39 471.17 689.53 460.22 680.85 447.95 670.41 436.77 659.96 431.04 648.87 429.11 638.01 430.18 627.47 435.24 617.61 440.3 609.35 443.48 599.22 447.17 593.72 434.45 600.12 418.26 606.69 406.25 615.99 391.97 627.05 376.45 638.49 361 651.32 344.41 664.67 327.99 678.02 312.49 691.84 298.44 705.42 287.8 719 280.28 732.45 277.99 745.02 282.1" stroke-dasharray="5 5" transform="rotate(13.5, 711, 400)" opacity="0.26"></path><path d="M736.47 293.15C747.03 300 755.46 310.68 761.49 323.55 767.31 337.22 770.5 351.73 770.89 365.89 770.99 379.64 768.37 392.92 763.23 405.25 758.28 417.31 751.44 428.91 743.18 439.63 736.14 450.34 728.95 459.03 722.08 465.16 716.52 470.76 710.91 473.01 705.2 471.44 700.21 468.9 694.5 462.6 687.92 453.22 681.5 444.52 673.84 434.83 665.02 425.73 656.2 420.55 647.12 417.85 638.43 417.22 617.2 423.53 605.2 415.88 611.13 402.54 616.91 392.55 624.96 380.41 634.49 367.15 644.39 354.11 655.5 340.28 667.07 326.91 678.74 314.55 690.79 303.68 702.55 295.82 714.36 290.43 725.91 289.25 736.47 293.15" stroke-dasharray="9 0" transform="rotate(14.25, 711, 400)" opacity="0.80"></path><path d="M726.8 304.2C735.4 309.88 742.12 318.54 746.81 329.02 751.36 340.29 753.77 352.5 753.98 364.64 754.04 376.74 752 388.56 747.99 399.46 744.18 410.27 738.82 420.35 732.18 429.11 726.36 437.86 720.19 444.35 714.08 448.35 706.12 452.47 690.17 445.69 681.43 435.78 675.58 429.22 668.95 421.87 661.67 414.68 654.39 410.16 647.16 407.07 640.45 405.27 624.5 406.23 616.82 397.31 622.13 386.51 627.07 378.44 633.83 368.67 641.79 358.09 650.05 347.76 659.34 337.01 669.02 326.89 678.82 317.65 688.93 309.82 698.75 304.47 708.63 300.93 718.19 300.63 726.8 304.2" stroke-dasharray="5 2" transform="rotate(15, 711, 400)" opacity="0.93"></path><path d="M716.43 315.25C723.14 319.75 728.31 326.45 731.87 334.53 735.36 343.27 737.19 352.88 737.36 362.57 737.49 372.41 736.03 382.11 733.09 391.04 730.31 400 726.29 408.18 721.17 415 714.04 424.19 699.24 431.73 691.81 429.95 687.16 428.02 682.18 424.21 676.96 418.96 671.84 414.36 666.3 409.07 660.5 403.63 651.93 398.32 637.27 392.82 632.09 391.05 628.41 389.58 628.58 380.66 633.13 372.14 637.17 365.87 642.61 358.52 648.96 350.73 655.55 343.16 662.94 335.5 670.64 328.51 678.46 322.18 686.52 317.04 694.31 313.82 702.17 311.79 709.71 312.13 716.43 315.25" stroke-dasharray="11 10" transform="rotate(15.75, 711, 400)" opacity="0.46"></path><path d="M705.81 326.29C715.63 333.71 720.82 346.51 721.23 360.34 721.66 374.91 717.81 389.12 710.17 399.05 703.65 408.97 695.28 412.32 686.83 409.77 679.08 407.58 670.29 401.12 661.55 392.58 652.81 387.73 645.71 383.19 641.74 378.75 638.27 375.96 638.68 370.39 644.14 361.2 650.54 352.01 660.81 341.14 672.1 332.27 683.74 324.99 696 322.08 705.81 326.29" stroke-dasharray="7 0" transform="rotate(16.5, 711, 400)" opacity="0.36"></path><path d="M695.43 337.34C708.18 348.1 709.28 370.39 699.16 383.21 690.98 396.03 676.54 393.35 664.79 381.53 653.03 376.08 647.87 367.13 655.14 355.05 664.14 342.95 682.68 332.38 695.43 337.34" stroke-dasharray="5 3" transform="rotate(17.25, 711, 400)" opacity="0.35"></path></g></svg>