<svg width="158" height="158" viewBox="0 0 158 158" fill="none" xmlns="http://www.w3.org/2000/svg">
<path d="M25.0225 35.7167H124.547C133.562 35.7167 140.071 44.0246 137.598 52.3849L126.778 89.0182C125.11 94.644 119.785 98.5167 113.728 98.5167H53.8189C47.7548 98.5167 42.4233 94.6375 40.7618 89.0182L25.0225 35.7167ZM25.0225 35.7167L20.3779 20.0167M108.69 137.767C111.293 137.767 113.789 136.733 115.629 134.893C117.469 133.052 118.503 130.557 118.503 127.954C118.503 125.352 117.469 122.856 115.629 121.016C113.789 119.176 111.293 118.142 108.69 118.142C106.088 118.142 103.592 119.176 101.752 121.016C99.9117 122.856 98.8779 125.352 98.8779 127.954C98.8779 130.557 99.9117 133.052 101.752 134.893C103.592 136.733 106.088 137.767 108.69 137.767ZM56.3571 137.767C58.9595 137.767 61.4554 136.733 63.2956 134.893C65.1358 133.052 66.1696 130.557 66.1696 127.954C66.1696 125.352 65.1358 122.856 63.2956 121.016C61.4554 119.176 58.9595 118.142 56.3571 118.142C53.7547 118.142 51.2588 119.176 49.4186 121.016C47.5784 122.856 46.5446 125.352 46.5446 127.954C46.5446 130.557 47.5784 133.052 49.4186 134.893C51.2588 136.733 53.7547 137.767 56.3571 137.767Z" stroke="white" stroke-width="8" stroke-linecap="round" stroke-linejoin="round"/>
</svg>
